<!-- icon666.com - MILLIONS OF FREE VECTOR ICONS --><svg version="1.1" id="Layer_1" xmlns="http://www.w3.org/2000/svg" xmlns:xlink="http://www.w3.org/1999/xlink" x="0px" y="0px" viewBox="0 0 512 512" style="enable-background:new 0 0 512 512;" xml:space="preserve"><g><g><path d="M418.635,67.365C375.193,23.924,317.436,0,256,0C194.565,0,136.807,23.924,93.365,67.365 C49.924,110.807,26,168.564,26,230c0,58.226,21.615,113.375,61,155.99V512h34.416l61.121-63.997 C206.154,455.968,230.818,460,256,460c61.436,0,119.193-23.924,162.635-67.365S486,291.436,486,230 S462.076,110.807,418.635,67.365z M417.888,248.561c-0.418,6.428-1.329,13.271-2.722,20.531 c-1.402,7.268-3.563,14.665-6.495,22.207c-2.935,7.542-6.915,14.39-11.942,20.532c-5.029,6.147-11.313,11.103-18.856,14.874 c-7.541,3.771-16.621,5.657-27.233,5.657c-7.824,0-14.391-0.982-19.695-2.932c-5.309-1.958-9.635-4.465-12.988-7.543 c-3.353-3.07-5.867-6.422-7.543-10.055c-1.676-3.627-2.795-6.979-3.353-10.056c-9.498,8.943-20.32,16.067-32.472,21.369 c-12.152,5.303-25.767,7.961-40.851,7.961c-11.458,0-21.442-1.611-29.959-4.819c-8.524-3.208-15.575-7.679-21.16-13.408 c-5.591-5.722-9.709-12.361-12.361-19.902c-2.658-7.542-3.981-15.64-3.981-24.302c0-12.57,2.442-23.045,7.332-31.425 c4.884-8.38,11.241-15.221,19.065-20.531c7.816-5.303,16.55-9.075,26.187-11.314c9.637-2.232,19.338-3.351,29.121-3.351 c11.451,0,20.668,1.119,27.654,3.351c6.979,2.239,12.426,4.334,16.34,6.285c0-5.584-0.699-10.75-2.094-15.503 c-1.402-4.746-3.771-8.799-7.123-12.151s-7.897-5.931-13.618-7.752c-5.727-1.814-12.923-2.723-21.579-2.723 c-11.731,0-22.141,1.539-31.215,4.61c-9.081,3.077-16.413,7.266-21.998,12.57l-13.408-40.643 c10.613-7.26,22.207-12.498,34.778-15.712c12.57-3.208,25.833-4.819,39.805-4.819c20.113,0,35.754,2.932,46.928,8.799 c11.17,5.866,19.412,13.27,24.721,22.207c5.303,8.943,8.446,18.58,9.427,28.911c0.975,10.338,1.466,20.113,1.466,29.33v28.074 c0,6.148,0.139,12.295,0.42,18.436c0.275,6.147,1.113,11.731,2.514,16.76c1.393,5.028,3.417,9.08,6.075,12.151 c2.652,3.077,6.495,4.609,11.524,4.609c6.703,0,11.942-2.652,15.712-7.961c3.77-5.302,6.703-11.66,8.799-19.064 c2.094-7.397,3.417-14.874,3.98-22.416c0.555-7.542,0.838-13.546,0.838-18.017c0-18.711-3.078-35.962-9.219-51.747 c-6.148-15.779-14.947-29.395-26.395-40.852c-11.457-11.451-25.285-20.387-41.481-26.816c-16.205-6.422-34.502-9.637-54.889-9.637 c-20.113,0-38.202,3.215-54.261,9.637c-16.066,6.429-29.612,15.294-40.643,26.606c-11.038,11.313-19.484,24.721-25.35,40.224 c-5.866,15.503-8.799,32.472-8.799,50.909c0,17.598,2.723,34.148,8.17,49.651s13.408,29.055,23.883,40.643 s23.255,20.741,38.338,27.445c15.084,6.704,32.401,10.056,51.956,10.056c7.26,0,13.828-0.491,19.693-1.466 c5.867-0.983,11.38-2.167,16.552-3.561c5.164-1.402,10.12-3.078,14.874-5.029c4.746-1.957,9.775-3.915,15.084-5.866l8.379,28.492 c-12.012,5.585-24.511,9.775-37.501,12.571c-12.988,2.789-25.767,4.19-38.337,4.19c-20.951,0-40.644-3.705-59.08-11.103 c-18.436-7.405-34.567-17.952-48.394-31.634c-13.827-13.689-24.721-30.233-32.682-49.652 c-7.961-19.411-11.941-41.271-11.941-65.573c0-25.696,4.465-48.251,13.408-67.669c8.936-19.411,20.878-35.68,35.825-48.813 c14.94-13.127,32.191-22.973,51.746-29.54C216.414,76.287,236.945,73,258.457,73c20.387,0,40.225,3.142,59.5,9.427 c19.272,6.285,36.38,15.922,51.326,28.912c14.94,12.989,26.882,29.539,35.825,49.651c8.936,20.112,13.408,44.139,13.408,72.068 C418.516,236.973,418.308,242.138,417.888,248.561z"></path></g></g><g><g><path d="M273.751,241.229c-7.686-1.814-15.574-2.724-23.673-2.724c-11.457,0-20.393,2.167-26.816,6.495 c-6.429,4.334-9.637,11.103-9.637,20.322c0,1.957,0.275,4.334,0.838,7.123c0.556,2.795,1.676,5.447,3.352,7.961 c1.676,2.513,4.118,4.68,7.332,6.494c3.208,1.821,7.607,2.724,13.199,2.724c5.584,0,11.451-0.838,17.598-2.514 c6.139-1.676,11.869-3.772,17.178-6.285c6.422-3.071,11.103-6.56,14.036-10.475c2.934-3.909,4.401-8.655,4.401-14.246v-9.637 C287.368,244.791,281.431,243.049,273.751,241.229z"></path></g></g></svg>