<?xml version="1.0" standalone="no"?>
<!DOCTYPE svg PUBLIC "-//W3C//DTD SVG 20010904//EN"
 "http://www.w3.org/TR/2001/REC-SVG-20010904/DTD/svg10.dtd">
<svg version="1.0" xmlns="http://www.w3.org/2000/svg"
 width="1920.000000pt" height="1231.000000pt" viewBox="0 0 1920.000000 1231.000000"
 preserveAspectRatio="xMidYMid meet">
<metadata>
Created by potrace 1.16, written by Peter Selinger 2001-2019
</metadata>
<g transform="translate(0.000000,1231.000000) scale(0.100000,-0.100000)"
fill="#000000" stroke="none">
<path d="M6865 10948 c-105 -75 -193 -189 -234 -303 l-21 -60 2 -4016 3 -4016
43 -87 c52 -104 156 -215 242 -259 l55 -27 1816 0 1815 0 60 36 c95 57 179
146 225 240 75 154 69 -212 69 4134 0 4318 5 3981 -63 4125 -37 76 -123 178
-193 226 l-43 29 -1873 0 -1873 -1 -30 -21z m-34 -192 c-56 -70 -75 -113 -86
-196 -4 -30 -8 -1819 -7 -3975 0 -3460 2 -3929 15 -3995 8 -41 13 -77 11 -79
-8 -9 -46 92 -54 147 -14 83 -13 7787 1 7872 13 81 59 177 117 241 62 69 63
61 3 -15z m944 34 c11 -12 18 -38 20 -73 3 -74 42 -133 110 -167 l50 -25 820
0 c816 0 820 0 866 21 66 31 98 78 113 165 8 49 18 76 31 86 16 11 77 13 350
11 l330 -3 67 -33 c71 -35 126 -91 169 -172 l24 -45 3 -518 3 -517 -1958 2
-1958 3 0 500 c0 496 0 500 23 556 39 96 125 178 222 212 37 13 101 16 371 17
311 0 327 -1 344 -20z m2975 -77 c27 -41 57 -98 65 -126 13 -47 15 -504 13
-4012 l-3 -3960 -28 -55 c-15 -30 -25 -44 -22 -30 24 118 26 416 23 4135 -3
3715 -4 3923 -21 3972 -10 29 -38 75 -62 104 -25 29 -45 57 -45 62 0 18 31
-17 80 -90z m-2985 -1648 c19 -18 25 -35 25 -65 0 -55 -34 -90 -88 -90 -84 0
-123 99 -62 160 29 29 94 27 125 -5z m1496 -1 c17 -18 24 -37 24 -66 0 -53
-38 -88 -96 -88 l-39 0 0 90 0 90 43 0 c34 0 49 -6 68 -26z m554 1 c19 -18 25
-35 25 -65 0 -58 -33 -90 -95 -90 l-45 0 0 90 0 90 45 0 c35 0 52 -6 70 -25z
m-990 -1077 l8 -23 4 23 c5 25 13 28 31 10 9 -9 15 -10 20 -2 4 7 44 10 102
10 l95 -1 0 -30 c0 -26 -3 -30 -32 -31 -27 -1 -33 2 -34 20 0 21 0 21 -9 -2
-8 -20 -16 -22 -65 -20 -37 2 -55 7 -55 15 0 17 -19 17 -26 0 -2 -7 -25 -14
-54 -15 l-50 -2 0 35 c0 32 3 35 29 35 21 0 31 -6 36 -22z m-155 -353 c0 -3
-12 -10 -27 -16 l-28 -11 24 -9 c14 -6 30 -8 37 -5 7 3 18 -2 25 -10 8 -10 14
-11 19 -4 4 6 26 12 51 13 43 2 44 1 41 -25 -2 -16 1 -28 7 -28 5 0 11 12 13
28 3 26 5 27 68 27 60 0 65 -2 68 -22 2 -13 7 -23 12 -23 5 0 10 10 12 23 3
20 9 22 65 24 35 1 65 -3 68 -8 4 -5 2 -9 -4 -9 -6 0 -14 -15 -19 -32 -10 -33
-11 -32 -27 17 -7 24 -25 17 -25 -9 0 -30 -18 -44 -27 -21 -5 15 -7 15 -14 3
-10 -18 -86 -23 -105 -7 -8 6 -14 20 -14 30 0 30 -28 22 -32 -8 -3 -26 -6 -28
-48 -28 -56 0 -64 3 -49 21 9 11 9 18 1 26 -11 11 -21 -5 -45 -74 -9 -26 -28
-22 -22 5 3 12 -1 31 -9 42 -14 18 -15 18 -16 3 0 -22 -45 -35 -65 -18 -17 14
-20 63 -5 91 7 12 21 19 40 19 17 0 30 -2 30 -5z m527 -46 c8 -8 16 -7 30 2
13 8 30 9 49 4 16 -5 33 -7 38 -6 4 1 14 -3 21 -9 9 -7 16 -6 25 5 17 20 30
10 30 -25 0 -34 -15 -47 -28 -25 -8 15 -10 15 -22 1 -8 -10 -17 -13 -24 -8
-15 13 -76 -14 -76 -33 0 -8 -4 -15 -10 -15 -5 0 -10 16 -10 35 0 36 -13 47
-24 20 -11 -31 -66 -10 -66 25 0 34 43 53 67 29z m-469 -3165 c-7 -7 -29 -17
-48 -21 -48 -13 -54 -43 -8 -43 43 0 66 -17 74 -55 14 -75 -88 -118 -136 -57
-18 23 -21 37 -18 89 5 74 23 99 82 111 48 10 76 -2 54 -24z m-1717 -41 l0
-68 32 39 c76 91 84 99 95 92 8 -5 12 -44 12 -117 0 -109 0 -110 -22 -107 -20
3 -24 10 -28 66 l-5 62 -49 -65 c-68 -93 -80 -87 -84 39 -3 114 0 126 28 126
18 0 20 -6 21 -67z m309 -72 c0 -28 5 -53 10 -56 6 -3 10 -19 10 -36 0 -22 -5
-29 -20 -29 -11 0 -20 7 -20 15 0 11 -12 15 -45 15 -33 0 -45 -4 -45 -15 0 -8
-9 -15 -20 -15 -16 0 -20 7 -20 31 0 17 7 37 15 45 8 9 15 30 15 48 0 18 3 36
7 39 3 4 30 7 60 7 l53 0 0 -49z m154 33 c9 -8 16 -26 16 -40 0 -22 -4 -24
-51 -24 -34 0 -48 -4 -43 -11 4 -7 22 -9 45 -6 42 6 58 -6 39 -28 -17 -20 -89
-19 -112 2 -23 20 -24 80 -1 105 20 23 85 24 107 2z m191 -54 l0 -65 -44 -3
c-25 -2 -54 -1 -66 2 -27 7 -49 56 -40 88 14 43 25 49 89 46 l61 -3 0 -65z
m655 1 l0 -69 -60 -1 c-50 0 -62 3 -75 21 -20 29 -19 77 2 100 12 13 31 18 75
18 l58 0 0 -69z m158 2 c-2 -55 -6 -68 -20 -71 -13 -2 -18 3 -18 17 0 27 -21
27 -38 1 -16 -26 -57 -28 -47 -2 8 20 8 26 -1 65 -10 42 10 57 73 57 l54 0 -3
-67z m847 -3 l0 -65 -57 -3 c-47 -2 -61 1 -78 18 -24 24 -26 67 -4 98 14 20
23 23 77 20 l62 -3 0 -65z m446 49 c33 -33 21 -54 -34 -57 -26 -2 -47 -8 -47
-14 0 -7 15 -9 40 -5 43 6 59 -5 40 -28 -19 -22 -86 -19 -110 5 -24 24 -26 77
-3 102 23 25 87 24 114 -3z m173 5 c46 -46 19 -116 -47 -122 -35 -3 -37 -5
-37 -38 0 -37 -25 -58 -41 -33 -10 16 -12 192 -2 202 13 14 111 7 127 -9z
m494 -55 l3 -67 -58 -1 c-69 0 -93 16 -93 67 0 55 23 73 89 70 l56 -3 3 -66z
m156 11 c4 -33 4 -65 1 -70 -11 -17 -37 -11 -42 10 -3 11 -9 20 -14 20 -4 0
-13 -9 -19 -20 -6 -11 -20 -20 -30 -20 -22 0 -26 20 -9 37 8 8 8 13 0 17 -15
9 -14 59 1 74 7 7 33 12 59 12 l46 0 7 -60z m-3513 -328 c33 -27 30 -78 -5
-109 -35 -30 -71 -29 -101 2 -69 69 29 168 106 107z m459 -2 c11 -11 20 -29
20 -40 0 -17 -7 -20 -50 -20 -50 0 -67 -13 -30 -25 10 -3 28 -1 40 5 28 15 41
-17 15 -36 -50 -37 -124 7 -125 72 0 6 9 23 21 38 26 33 79 36 109 6z m480 0
c45 -45 12 -121 -52 -123 -48 -1 -78 25 -78 70 0 44 30 73 75 73 22 0 43 -8
55 -20z m2710 -830 c0 -463 -1 -481 -21 -536 -32 -85 -93 -153 -174 -194 l-68
-35 -1696 0 -1696 0 -53 28 c-110 58 -180 150 -202 266 -6 31 -10 241 -10 502
l0 449 1960 0 1960 0 0 -480z"/>
</g>
</svg>
